HIERARCHY
ROOT Hips
{
    OFFSET   0.000000   0.000000   0.000000
    CHANNELS 6 Xposition Yposition Zposition Zrotation Xrotation Yrotation
    JOINT Chest
    {
        OFFSET   0.000000   8.007230   0.000000
        CHANNELS 3 Zrotation Xrotation Yrotation
        JOINT Chest2
        {
            OFFSET   0.000000  22.077100   0.000000
            CHANNELS 3 Zrotation Xrotation Yrotation
            JOINT Neck
            {
                OFFSET   0.000000  23.255100   0.000000
                CHANNELS 3 Zrotation Xrotation Yrotation
                JOINT Head
                {
                    OFFSET   0.000000  14.370100   1.956600
                    CHANNELS 3 Zrotation Xrotation Yrotation
                    End Site
                    {
                        OFFSET   0.000000  19.566000   0.000000
                    }
                }
            }
            JOINT LeftCollar
            {
                OFFSET   3.911900  19.017000  -0.467063
                CHANNELS 3 Zrotation Xrotation Yrotation
                JOINT LeftShoulder
                {
                    OFFSET  10.383700   0.000000   0.000000
                    CHANNELS 3 Zrotation Xrotation Yrotation
                    JOINT LeftElbow
                    {
                        OFFSET  26.662100   0.001193   0.000980
                        CHANNELS 3 Zrotation Xrotation Yrotation
                        JOINT LeftWrist
                        {
                            OFFSET  28.869000  -0.000059  -0.000082
                            CHANNELS 3 Zrotation Xrotation Yrotation
                            JOINT LeftFinger0
                            {
                                OFFSET   2.044650  -2.323450   3.252850
                                CHANNELS 3 Zrotation Xrotation Yrotation
                                JOINT LeftFinger01
                                {
                                    OFFSET   3.088130   0.000000   0.000000
                                    CHANNELS 3 Zrotation Xrotation Yrotation
                                    JOINT LeftFinger02
                                    {
                                        OFFSET   2.639460   0.000000   0.000000
                                        CHANNELS 3 Zrotation Xrotation Yrotation
                                        End Site
                                        {
                                            OFFSET   2.582190   0.000000   0.000000
                                        }
                                    }
                                }
                            }
                            JOINT LeftFinger1
                            {
                                OFFSET   8.364480   0.000000   3.252850
                                CHANNELS 3 Zrotation Xrotation Yrotation
                                JOINT LeftFinger11
                                {
                                    OFFSET   4.646930   0.000000   0.000000
                                    CHANNELS 3 Zrotation Xrotation Yrotation
                                    JOINT LeftFinger12
                                    {
                                        OFFSET   2.323470   0.000000   0.000000
                                        CHANNELS 3 Zrotation Xrotation Yrotation
                                        End Site
                                        {
                                            OFFSET   2.273050   0.000000   0.000000
                                        }
                                    }
                                }
                            }
                            JOINT LeftFinger2
                            {
                                OFFSET   8.364490   0.000016   1.078090
                                CHANNELS 3 Zrotation Xrotation Yrotation
                                JOINT LeftFinger21
                                {
                                    OFFSET   5.111610   0.000000   0.000000
                                    CHANNELS 3 Zrotation Xrotation Yrotation
                                    JOINT LeftFinger22
                                    {
                                        OFFSET   2.788150   0.000016   0.000000
                                        CHANNELS 3 Zrotation Xrotation Yrotation
                                        End Site
                                        {
                                            OFFSET   2.727660   0.000000   0.000000
                                        }
                                    }
                                }
                            }
                            JOINT LeftFinger3
                            {
                                OFFSET   7.899780   0.000015  -1.078090
                                CHANNELS 3 Zrotation Xrotation Yrotation
                                JOINT LeftFinger31
                                {
                                    OFFSET   4.646930   0.000000   0.000000
                                    CHANNELS 3 Zrotation Xrotation Yrotation
                                    JOINT LeftFinger32
                                    {
                                        OFFSET   2.323470   0.000000   0.000000
                                        CHANNELS 3 Zrotation Xrotation Yrotation
                                        End Site
                                        {
                                            OFFSET   2.273050   0.000000   0.000000
                                        }
                                    }
                                }
                            }
                            JOINT LeftFinger4
                            {
                                OFFSET   7.435090   0.000000  -3.252850
                                CHANNELS 3 Zrotation Xrotation Yrotation
                                JOINT LeftFinger41
                                {
                                    OFFSET   3.717550   0.000000   0.000000
                                    CHANNELS 3 Zrotation Xrotation Yrotation
                                    JOINT LeftFinger42
                                    {
                                        OFFSET   1.858770   0.000000   0.000000
                                        CHANNELS 3 Zrotation Xrotation Yrotation
                                        End Site
                                        {
                                            OFFSET   1.818440   0.000000   0.000000
                                        }
                                    }
                                }
                            }
                        }
                    }
                }
            }
            JOINT RightCollar
            {
                OFFSET  -3.911910  19.017000  -0.467062
                CHANNELS 3 Zrotation Xrotation Yrotation
                JOINT RightShoulder
                {
                    OFFSET -10.383700   0.000014   0.000000
                    CHANNELS 3 Zrotation Xrotation Yrotation
                    JOINT RightElbow
                    {
                        OFFSET -26.662100   0.001225   0.001091
                        CHANNELS 3 Zrotation Xrotation Yrotation
                        JOINT RightWrist
                        {
                            OFFSET -28.869000  -0.000020  -0.000085
                            CHANNELS 3 Zrotation Xrotation Yrotation
                            JOINT RightFinger0
                            {
                                OFFSET  -2.044650  -2.323490   3.252850
                                CHANNELS 3 Zrotation Xrotation Yrotation
                                JOINT RightFinger01
                                {
                                    OFFSET  -3.088130   0.000000   0.000000
                                    CHANNELS 3 Zrotation Xrotation Yrotation
                                    JOINT RightFinger02
                                    {
                                        OFFSET  -2.639460   0.000000   0.000000
                                        CHANNELS 3 Zrotation Xrotation Yrotation
                                        End Site
                                        {
                                            OFFSET  -2.582190   0.000000   0.000000
                                        }
                                    }
                                }
                            }
                            JOINT RightFinger1
                            {
                                OFFSET  -8.364480   0.000000   3.252850
                                CHANNELS 3 Zrotation Xrotation Yrotation
                                JOINT RightFinger11
                                {
                                    OFFSET  -4.646930   0.000000   0.000000
                                    CHANNELS 3 Zrotation Xrotation Yrotation
                                    JOINT RightFinger12
                                    {
                                        OFFSET  -2.323470   0.000000   0.000000
                                        CHANNELS 3 Zrotation Xrotation Yrotation
                                        End Site
                                        {
                                            OFFSET  -2.273050   0.000000   0.000000
                                        }
                                    }
                                }
                            }
                            JOINT RightFinger2
                            {
                                OFFSET  -8.364480   0.000000   1.078090
                                CHANNELS 3 Zrotation Xrotation Yrotation
                                JOINT RightFinger21
                                {
                                    OFFSET  -5.111620   0.000000   0.000000
                                    CHANNELS 3 Zrotation Xrotation Yrotation
                                    JOINT RightFinger22
                                    {
                                        OFFSET  -2.788160   0.000000   0.000000
                                        CHANNELS 3 Zrotation Xrotation Yrotation
                                        End Site
                                        {
                                            OFFSET  -2.727660   0.000000   0.000000
                                        }
                                    }
                                }
                            }
                            JOINT RightFinger3
                            {
                                OFFSET  -7.899780   0.000000  -1.078090
                                CHANNELS 3 Zrotation Xrotation Yrotation
                                JOINT RightFinger31
                                {
                                    OFFSET  -4.646930   0.000000   0.000000
                                    CHANNELS 3 Zrotation Xrotation Yrotation
                                    JOINT RightFinger32
                                    {
                                        OFFSET  -2.323470   0.000000   0.000000
                                        CHANNELS 3 Zrotation Xrotation Yrotation
                                        End Site
                                        {
                                            OFFSET  -2.273050   0.000000   0.000000
                                        }
                                    }
                                }
                            }
                            JOINT RightFinger4
                            {
                                OFFSET  -7.435090   0.000000  -3.252850
                                CHANNELS 3 Zrotation Xrotation Yrotation
                                JOINT RightFinger41
                                {
                                    OFFSET  -3.717550   0.000000   0.000000
                                    CHANNELS 3 Zrotation Xrotation Yrotation
                                    JOINT RightFinger42
                                    {
                                        OFFSET  -1.858760   0.000000   0.000000
                                        CHANNELS 3 Zrotation Xrotation Yrotation
                                        End Site
                                        {
                                            OFFSET  -1.818440   0.000000   0.000000
                                        }
                                    }
                                }
                            }
                        }
                    }
                }
            }
        }
    }
    JOINT LeftHip
    {
        OFFSET   9.783030   0.000000   0.000000
        CHANNELS 3 Zrotation Xrotation Yrotation
        JOINT LeftKnee
        {
            OFFSET   0.000063 -41.789100   0.000608
            CHANNELS 3 Zrotation Xrotation Yrotation
            JOINT LeftAnkle
            {
                OFFSET   0.000048 -41.133200  -0.000184
                CHANNELS 3 Zrotation Xrotation Yrotation
                JOINT LeftToe
                {
                    OFFSET   0.000000  -6.358960  14.674500
                    CHANNELS 3 Zrotation Xrotation Yrotation
                    End Site
                    {
                        OFFSET   0.000000   0.000000   3.913200
                    }
                }
            }
        }
    }
    JOINT RightHip
    {
        OFFSET  -9.783030   0.000000   0.000000
        CHANNELS 3 Zrotation Xrotation Yrotation
        JOINT RightKnee
        {
            OFFSET   0.000071 -41.789100   0.001239
            CHANNELS 3 Zrotation Xrotation Yrotation
            JOINT RightAnkle
            {
                OFFSET   0.000037 -41.133200  -0.000166
                CHANNELS 3 Zrotation Xrotation Yrotation
                JOINT RightToe
                {
                    OFFSET   0.000000  -6.358960  14.674500
                    CHANNELS 3 Zrotation Xrotation Yrotation
                    End Site
                    {
                        OFFSET   0.000000   0.000000   3.913200
                    }
                }
            }
        }
    }
}
MOTION
Frames: 4
Frame Time:   0.016667
 -1.489660  89.452500   3.370080  -4.390870 -14.922000  -5.979580   1.203360   9.800680  -2.379240   2.890430  19.538900  -5.082780   2.725570  -1.652380   0.078553   4.488040  -3.328200   0.291275  -4.464970  -0.177971   1.981910 -68.578700  22.389700  -5.708440  -4.452830  -7.036080 -19.632900  15.692600 -12.859300   6.850700  40.319000  36.546700 -64.152400 -33.860000   0.005760   0.004842 -11.930000   0.002111   0.014548 -31.887800   6.135560  -9.750090 -26.516200   0.005224  -0.000245 -18.562800   0.004664   0.003288 -28.570900  -1.673200   3.069160 -37.593000   0.003089   0.001391 -25.036900   0.005036   0.003275 -28.618200  -1.675760   3.067770 -38.358100   0.004532  -0.005310 -25.546500   0.004272   0.004774 -32.210000  -1.864580   2.957010 -48.386400   0.004009   0.000633 -32.225300   0.003267   0.006674  10.535200   1.883560   8.017820  48.430400  -7.936540   1.012270 -33.192300 -43.394600  84.405700 -11.004300  -9.044900   5.961320 -20.465600  51.867300  56.362000  81.139400  -0.007048   0.000047  47.378900  -0.003591   0.003550  88.996200   4.998880   0.087476  83.828600   0.000703  -0.008627  62.871500  -0.001186  -0.004086  89.000000  -0.003069  -0.000060  90.993700  -0.001042   0.006846  68.245300  -0.000393  -0.000999  89.001700  -4.995100  -0.090300  89.381500   0.003289   0.001058  67.036200   0.004661   0.000907  88.984600 -10.004400  -0.176327 110.000000  -0.001025  -0.005721  80.000000  -0.000178  -0.001195   3.850660  19.144100   3.550180   1.027380   0.091254   7.316850  -3.907190  -4.222190   0.465714   0.000000   0.000000   0.000000   3.800450  17.679800  -4.686260  -0.527692   2.350740  -4.771220   0.119772  -5.441770   3.021480   0.000000   0.000000   0.000000
 -1.395560  89.462200   3.310850  -4.390310 -14.714700  -6.049130   1.174360   9.634300  -2.396470   2.824070  19.207300  -5.106280   2.610620  -1.666200   0.075882   4.299240  -3.358240   0.738366  -4.496370  -0.130234   1.964400 -68.653300  22.310100  -5.657520  -4.299540  -7.007150 -19.625200  15.797200 -12.973300   6.930550  40.351200  36.523800 -64.123400 -33.795100   0.005892   0.004858 -11.897500   0.002282   0.021911 -31.874500   6.158060  -9.787920 -26.511000   0.005226  -0.000167 -18.557700   0.004664   0.007054 -28.568700  -1.640360   3.009190 -37.563400   0.003091   0.001464 -25.017200   0.004983   0.003274 -28.623900  -1.643260   3.007620 -38.426400   0.004533  -0.005311 -25.592000   0.004272   0.004775 -32.256900  -1.831020   2.897540 -48.454400   0.004008   0.000756 -32.270600   0.003267   0.006673  10.498700   1.941620   7.987800  48.596800  -8.141160   0.782493 -32.756600 -44.072400  85.678700 -10.586600  -9.043850   6.305440 -20.804300  52.494700  56.854700  81.145300  -0.007085   0.000249  47.382800  -0.003502   0.003664  88.996200   4.998870   0.087471  83.788000   0.000733  -0.008520  62.841000  -0.001145  -0.003929  89.000000  -0.003378   0.000000  90.915200  -0.001065   0.007033  68.186400  -0.000220  -0.000979  89.001400  -4.995140  -0.090231  89.430000   0.003404   0.001269  67.072500   0.004805   0.000750  88.984600 -10.004500  -0.176319 110.000000  -0.001046  -0.005883  80.000000  -0.000116  -0.001143   3.782180  18.935000   3.530200   1.003360   0.029618   7.275060  -3.800990  -4.185450   0.629206   0.000000   0.000000  -0.000000   3.753600  17.421800  -4.584890  -0.598705   2.372970  -4.743080   0.183986  -5.415900   2.972000  -0.000000   0.000000  -0.000000
 -1.296580  89.471800   3.253970  -4.384010 -14.513400  -6.106500   1.145530   9.471550  -2.395090   2.751610  18.883400  -5.094720   2.497020  -1.680080   0.073329   4.112440  -3.387850   1.137470  -4.517690  -0.075899   1.927960 -68.735600  22.228600  -5.615350  -4.139350  -6.984880 -19.650600  15.942400 -13.102200   6.989010  40.397200  36.502400 -64.145400 -33.700300   0.006016   0.004849 -11.850100   0.002451   0.020563 -31.890600   6.173270  -9.800290 -26.526200   0.005226  -0.000082 -18.568300   0.004666   0.012078 -28.573100  -1.568580   2.877450 -37.567100   0.003090   0.001535 -25.019700   0.004930   0.003278 -28.634400  -1.571790   2.875710 -38.547900   0.004531  -0.005311 -25.672900   0.004272   0.004775 -32.341300  -1.756180   2.767440 -48.575200   0.004008   0.000878 -32.351100   0.003266   0.006673  10.475400   2.000500   7.935610  48.787400  -8.350520   0.535574 -32.262900 -44.604000  86.971100 -10.427500  -8.739860   6.742110 -20.977800  52.760800  57.456300  81.213200  -0.007127   0.000442  47.428000  -0.003416   0.003768  88.996200   4.998850   0.087479  83.865600   0.000770  -0.008405  62.899300  -0.001105  -0.003770  89.000000  -0.003682   0.000054  90.978500  -0.001058   0.007207  68.234000  -0.000053  -0.000951  89.001100  -4.995180  -0.090177  89.592400   0.003521   0.001477  67.194300   0.004950   0.000586  88.984600 -10.004700  -0.176308 110.000000  -0.001055  -0.006034  80.000000  -0.000059  -0.001095   3.710950  18.711100   3.518390   0.984747   0.007207   7.229870  -3.704880  -4.165350   0.774000   0.000000   0.000000   0.000000   3.699270  17.181500  -4.479060  -0.660152   2.381300  -4.731220   0.250099  -5.385670   2.924560  -0.000000   0.000000   0.000000
 -1.195310  89.480400   3.198370  -4.371900 -14.319000  -6.144370   1.122380   9.315960  -2.392370   2.698370  18.573600  -5.074360   2.381510  -1.695770   0.070693   3.922400  -3.420970   1.483800  -4.538390  -0.045367   1.873610 -68.814200  22.155700  -5.583480  -3.980320  -6.956600 -19.710400  16.099600 -13.239800   7.031820  40.415800  36.483800 -64.166400 -33.637400   0.006142   0.004840 -11.818700   0.002623   0.016224 -31.929100   6.180300  -9.802150 -26.557900   0.005225   0.000000 -18.590500   0.004668   0.016444 -28.576900  -1.517700   2.784050 -37.584500   0.003090   0.001602 -25.031300   0.004878   0.003283 -28.644600  -1.521090   2.782230 -38.701400   0.004529  -0.005310 -25.775100   0.004272   0.004776 -32.445700  -1.703000   2.675270 -48.728600   0.004008   0.000999 -32.453200   0.003265   0.006673  10.456400   2.033710   7.865620  48.996700  -8.477160   0.249555 -31.712500 -45.087700  88.204800 -10.358500  -8.216790   7.280310 -20.912000  52.783500  57.869400  81.312100  -0.007169   0.000630  47.493900  -0.003330   0.003868  88.996200   4.998840   0.087487  83.943300   0.000811  -0.008284  62.957500  -0.001060  -0.003611  89.000000  -0.003980   0.000107  91.041900  -0.001051   0.007383  68.281500   0.000116  -0.000922  89.000700  -4.995230  -0.090155  89.708200   0.003641   0.001687  67.281100   0.005095   0.000418  88.984600 -10.004900  -0.176301 110.000000  -0.001058  -0.006183  80.000000   0.000000  -0.001048   3.638980  18.479600   3.508960   0.971188   0.001605   7.178060  -3.613580  -4.156560   0.903940  -0.000000   0.000000  -0.000000   3.636020  16.950000  -4.370840  -0.708748   2.385370  -4.729450   0.310797  -5.353880   2.875070  -0.000000   0.000000   0.000000
